<?xml version="1.0" encoding="UTF-8"?>
<!DOCTYPE svg PUBLIC "-//W3C//DTD SVG 1.1//EN" "http://www.w3.org/Graphics/SVG/1.1/DTD/svg11.dtd">
<svg xmlns="http://www.w3.org/2000/svg" version="1.1" width="500px" height="500px" style="shape-rendering:geometricPrecision; text-rendering:geometricPrecision; image-rendering:optimizeQuality; fill-rule:evenodd; clip-rule:evenodd" xmlns:xlink="http://www.w3.org/1999/xlink">
<g><path style="opacity:0.998" fill="#bb8cc8" d="M 118.5,109.5 C 121.833,109.5 125.167,109.5 128.5,109.5C 128.167,185.668 128.501,261.668 129.5,337.5C 154.167,337.5 178.833,337.5 203.5,337.5C 205.497,261.841 206.164,185.841 205.5,109.5C 226.5,109.5 247.5,109.5 268.5,109.5C 295.563,109.266 320.897,115.599 344.5,128.5C 344.821,130.048 345.821,130.715 347.5,130.5C 367.295,143.489 380.462,161.489 387,184.5C 395.506,218.037 393.839,251.037 382,283.5C 369.708,311.068 349.208,329.568 320.5,339C 309.405,342.486 298.072,344.819 286.5,346C 230.52,347.624 174.52,347.958 118.5,347C 117.195,267.894 117.195,188.728 118.5,109.5 Z M 260.5,118.5 C 286.749,118.293 311.749,123.626 335.5,134.5C 335.973,135.906 336.973,136.573 338.5,136.5C 350.565,144.566 360.232,154.899 367.5,167.5C 367.932,168.71 368.599,169.71 369.5,170.5C 381.17,200.007 383.67,230.34 377,261.5C 367.678,300.821 343.178,324.654 303.5,333C 292.254,335.064 280.92,336.398 269.5,337C 251.836,337.5 234.17,337.667 216.5,337.5C 215.337,264.904 215.17,192.237 216,119.5C 230.755,118.509 245.588,118.176 260.5,118.5 Z"/></g>
<g><path style="opacity:0.334" fill="#e4d2e9" d="M 118.5,109.5 C 121.962,108.518 125.629,108.185 129.5,108.5C 129.5,184.833 129.5,261.167 129.5,337.5C 128.501,261.668 128.167,185.668 128.5,109.5C 125.167,109.5 121.833,109.5 118.5,109.5 Z"/></g>
<g><path style="opacity:0.675" fill="#d6bbde" d="M 268.5,109.5 C 247.5,109.5 226.5,109.5 205.5,109.5C 206.164,185.841 205.497,261.841 203.5,337.5C 204.497,261.238 204.83,184.904 204.5,108.5C 226.007,108.169 247.34,108.503 268.5,109.5 Z"/></g>
<g><path style="opacity:0.796" fill="#c8a2d3" d="M 260.5,118.5 C 245.588,118.176 230.755,118.509 216,119.5C 215.17,192.237 215.337,264.904 216.5,337.5C 215.167,301.339 214.5,264.839 214.5,228C 214.667,191.5 214.833,155 215,118.5C 230.265,117.17 245.431,117.17 260.5,118.5 Z"/></g>
<g><path style="opacity:0.918" fill="#dec6e4" d="M 344.5,128.5 C 345.71,128.932 346.71,129.599 347.5,130.5C 345.821,130.715 344.821,130.048 344.5,128.5 Z"/></g>
<g><path style="opacity:0.427" fill="#dfc9e5" d="M 335.5,134.5 C 337.027,134.427 338.027,135.094 338.5,136.5C 336.973,136.573 335.973,135.906 335.5,134.5 Z"/></g>
<g><path style="opacity:0.886" fill="#dec6e4" d="M 367.5,167.5 C 369.048,167.821 369.715,168.821 369.5,170.5C 368.599,169.71 367.932,168.71 367.5,167.5 Z"/></g>
</svg>
